Patient4_TMGait_0pt5_01_right_07_EMG.mot
version=1
nRows=23
nColumns=33
inDegrees=no
endheader
time	1LAddLong	2LGlutMax	3LGlutMed	4LIliopsoas	5LSemiMemb	6LBicFemLong	7LRecFem	8LVastMed	9LVastLat	10LGasMed	11LTibAnt	12lTibPost	13LPeroneusLong	14LSol	15LExtDigLong	16LFlexDigLong	17RAddLong	18RGlutMax	19RGlutMed	20RIliopsoas	21RSemiMemb	22RBicFemLong	23RRecFem	24RVastMed	25RVastLat	26RGasMed	27RTibAnt	28RTibPost	29RPeroneusLong	30RSol	31RExtDigLong	32RFlexDigLong
10.155	-0.013275	-0.015869	-0.017548	0.022278	0.005798	-0.079193	0.0383	-0.010529	0.063324	-0.13001	0.27969	-0.03067	-0.060272	0.21957	-0.096893	-0.015564	0.005341	0.005188	-0.1413	-0.084686	0.033722	-0.002747	0.073395	-0.078583	0.043335	0.001984	0.45776	-0.011902	-0.001221	0.040588	-0.001373	-0.00885
10.156	0.020142	-0.016022	-0.012512	-0.000153	-0.005798	-0.31464	-0.029907	-0.014191	0.04837	-0.10666	0.25528	-0.014954	0.025635	0.19226	-0.073242	-0.006409	-0.010376	-0.023956	-0.12268	-0.17471	0.03006	-0.014954	0.10361	-0.096741	0.045166	-0.016937	0.38879	-0.005188	-0.097351	0.11658	-0.000458	-0.017548
10.157	-0.008087	-0.042572	0.023804	-0.006866	0.0177	-0.079346	0.032349	-0.007019	0.16556	-0.041809	0.021057	-0.012512	-0.058289	0.1033	-0.075989	-0.014038	-0.007019	-0.020599	-0.15869	-0.1207	-0.045776	0.033264	-0.00824	-0.16495	0.032043	-0.016174	0.12955	-0.010834	-0.11337	0.044403	-0.002594	-0.013275
10.158	-0.017548	-0.050507	0.004425	-0.006409	0.013123	0.09552	0.052643	-0.008087	0.26032	0.033569	-0.17242	-0.023956	-0.027466	0.17151	0.07431	-0.001526	-0.011902	-0.061493	0.013733	-0.14633	-0.088501	0.020447	-0.069275	-0.20615	0.02594	0.005646	0.1918	-0.005188	-0.16281	-0.024872	-0.00061	-0.016937
10.159	-0.001984	-0.037384	-0.035248	0.005493	-0.00885	0.15442	0.065613	-0.007019	0.1059	0.027466	-0.14984	-0.007477	-0.37964	0.25528	0.19104	0.00412	0.001984	-0.088196	-0.16495	-0.10849	-0.051422	-0.00885	-0.078735	-0.23804	0.019684	0.022125	-0.043488	-0.00885	-0.14496	0.02243	-0.001526	-0.010071
10.16	0.00473	-0.037079	-0.082855	0.012054	-0.008545	0.112	0.065308	-0.012054	0.039368	-0.019989	0.15045	-0.01236	-0.013123	0.21668	-0.11993	-0.00351	-0.011444	-0.060272	-0.50354	0.002747	-0.01709	0.003357	-0.1149	-0.23972	0.015106	0.020294	0.034943	-0.011749	-0.10162	0.002747	-0.001526	-0.011444
10.161	0.006409	-0.047302	-0.027618	0.013428	-0.003815	0.13825	0.052185	-0.005188	0.010681	-0.068817	0.21393	-0.010834	0.0383	0.23834	-0.1503	0.009918	-0.014343	-0.032349	-0.19119	-0.092316	-0.002441	0.013275	-0.00351	-0.25192	0.023956	0.012665	0.18875	-0.007782	-0.072784	-0.072327	-0.002899	-0.020447
10.162	0.009613	-0.012054	0.039673	-0.002747	-0.000916	-0.10468	0.065155	0.008698	-0.000305	-0.010376	0.31906	-0.012207	0.18784	0.13367	-0.045319	-0.012817	0.002441	-0.022736	0.28229	-0.14206	-0.000153	0.029907	0.21057	-0.24521	0.007172	0.005493	0.22751	-0.009613	-0.042877	-0.02533	0.008087	-0.030212
10.163	0.01709	-0.014191	0.016937	0.014343	0.041046	-0.43625	0.069885	-0.002899	0.006561	0.009766	0.29663	-0.010223	0.20767	0.004578	-0.42664	-0.021057	0.015411	0.001221	0.35858	0.33493	-0.016327	0.024567	0.51056	-0.20096	0.022736	-0.00473	0.29938	-0.015869	0.010834	0.068054	-0.007629	-0.036621
10.164	0.00946	0.004425	-0.003662	0.013733	0.057526	-0.54627	0.12222	0.000916	-0.022736	0.007782	0.027466	-0.006104	0.32562	-0.056305	-0.47989	-0.008087	0.02655	0.007324	0.36285	0.5748	-0.001068	0.002747	0.51178	-0.17502	0.013428	-0.007782	0.38971	-0.012665	-0.029907	0.085449	0.00061	-0.048523
10.165	0.01236	-0.019379	-0.047607	-0.002747	0.024109	-0.18936	0.12482	0.004425	0.003052	0.18799	-0.20111	-0.019073	0.22247	-0.084686	-0.32684	0.006409	0.009308	-0.059357	-0.47028	0.51987	0.003967	0.001984	0.40009	-0.072327	-0.01709	0.000763	0.41153	-0.013123	-0.34531	0.070801	0.000458	-0.055237
10.166	0.005646	-0.043335	-0.023651	0.009155	-0.001068	0.15488	0.097198	0.014496	0.016022	0.27512	-0.13382	-0.016785	0.71182	-0.035706	-0.34714	0.034943	0.010071	-0.074005	-0.53314	0.33737	0.001678	0.010529	0.057831	0.049591	0.01236	-0.005493	0.28854	-0.011139	-0.69534	0.061798	0.005646	-0.069733
10.167	0.012054	-0.043488	-0.075836	0.003052	0.000305	0.27222	0.059204	0.012512	0.029144	0.20477	-0.095673	-0.000153	0.8551	0.095367	-0.045471	-0.00473	0.003815	-0.056305	-0.42465	0.062256	0.002289	0.001831	0.19287	0.083466	0.019531	-0.00885	0.44052	-0.018005	-0.64438	0.044708	-0.000763	-0.073395
10.168	0.01236	-0.063324	-0.10696	-0.020905	0.028992	0.23865	0.067444	0.006104	0.013733	0.15625	-0.1001	-0.020142	1.2265	0.079956	0.16815	-0.028992	0.024567	-0.087738	-0.13229	-0.042114	-0.016785	-0.014648	0.20294	0.020447	0.025635	-0.014954	0.34927	-0.008545	0.009918	-0.036316	-0.001984	-0.085754
10.169	0.013275	-0.048218	-0.064697	-0.032959	0.057068	0.061493	0.10757	-0.019836	-0.001831	0.24994	-0.018005	-0.015411	0.25177	-0.058289	0.31494	-0.054779	0.004272	-0.084534	-0.13428	-0.055237	0.001221	0.008087	0.1503	-0.059052	-0.00061	-0.02655	0.1387	-0.007172	0.48523	-0.12833	-0.001984	-0.11032
10.17	0.012207	-0.050812	-0.00824	-0.011292	0.036316	-0.043182	0.010681	0.0354	-0.0177	0.51544	0.005341	-0.024261	-0.2034	-0.15259	0.30991	-0.040131	0.01236	-0.11475	-0.20538	-0.10483	-0.016479	0.031128	0.087128	-0.096283	0.014801	-0.030212	-0.13886	-0.009613	0.042267	-0.16892	-0.005798	-0.19531
10.171	0.018158	-0.077515	-0.053253	-0.008392	0.0383	-0.34332	0.026855	0.017242	0.006409	0.77866	-0.038757	-0.017853	-1.8698	-0.37201	0.31342	-0.000305	0.010681	-0.05127	0.034637	-0.089874	-0.079346	0.012054	0.035553	-0.076447	0.02243	-0.019989	-0.43549	-0.019531	0.15182	-0.19562	-0.002594	-0.19989
10.172	0.007477	-0.057831	-0.03479	-0.002136	0.023956	-0.33005	0.11749	-0.006409	0.025482	0.20447	-0.18631	-0.012512	0.25711	-0.70938	0.21118	0.013885	0.016937	-0.060425	0.30655	-0.11215	-0.089874	-0.004578	-0.007172	-0.053406	0.047913	0.055084	-0.28732	-0.02182	0.12207	-0.17014	0.000153	-0.233
10.173	-0.006256	-0.041656	0.007477	0.006714	0.011139	-0.039673	0.16892	-0.000458	0.039978	-0.26032	-0.21011	-0.016937	-0.25345	-0.79376	0.12909	0.016479	0.034027	-0.02533	0.21439	-0.036926	-0.049744	-0.013733	0.036316	-0.10346	0.041351	0.032959	0.040436	-0.016174	-0.16815	-0.14297	-0.001526	-0.25894
10.174	0.00061	-0.050507	0.025024	-0.005341	0.010986	0.03418	0.11581	0.003815	0.032043	-0.26245	-0.14603	-0.007477	-0.50049	-0.64468	0.15732	0.004883	0.047913	0.006409	0.086517	-0.030975	0.15686	-0.011444	-0.012512	-0.095978	0.039978	0.022278	0.30334	-0.023956	-0.2066	-0.23499	-0.00412	-0.27069
10.175	0.002899	-0.044708	0.020294	0.010071	0.016022	0.029602	0.017853	0.007019	0.033112	-0.45212	-0.11566	-0.006409	-0.2684	-0.43274	0.13443	-0.0177	0.0354	-0.027924	-0.41519	0.018921	0.14908	-0.005493	0.061646	-0.088654	0.014648	0.016785	-0.064392	-0.02182	-0.0354	-0.13763	-0.005798	-0.26123
10.176	0.00473	-0.074463	-0.001221	0.000305	0.023804	0.11383	-0.048065	0.014954	0.052032	-0.36468	-0.025024	-0.005646	-0.3508	-0.215	0.057068	-0.011597	0.007172	-0.015564	-0.41657	-0.0737	-0.096893	0.027771	0.070953	-0.13306	0.037384	0.009155	-0.3952	-0.020752	-0.1181	0.028687	-0.008392	-0.32684
10.177	-0.000763	-0.020752	-0.044708	0.010529	0.029144	0.27557	0.059204	0.006866	0.070953	-0.23743	0.06546	0.017242	0.34149	-0.039368	-0.014038	-0.027008	-0.00885	-0.007935	-0.076599	-0.13382	-0.13367	0.070953	0.10346	-0.14084	0.024872	0.011902	0.30075	-0.02243	-0.19699	0.017242	-0.001831	-0.2655
